<?xml version="1.0" encoding="utf-8"?>
<svg version="1.1" xmlns="http://www.w3.org/2000/svg" xmlns:xlink="http://www.w3.org/1999/xlink"
	 viewBox="197 180 100 100" xml:space="preserve">
	<g>
		<path style="fill:#888;" d="M289.215,223.497c0,6-2.65,11.51-7.24,16.03c-7.58,7.5-20.43,12.34-35.3,12.34 c-14.87,0-27.73-4.84-35.31-12.34c-4.59-4.52-7.24-10.03-7.24-16.03c0-15.9,18.69-28.36,42.55-28.36 S289.215,207.597,289.215,223.497z"/>
		<path style="fill:#888;" d="M289.215,223.497v14.19c0,15.9-18.68,28.36-42.54,28.36s-42.55-12.46-42.55-28.36v-14.19 c0,6,2.65,11.51,7.24,16.03c7.58,7.5,20.44,12.34,35.31,12.34c14.87,0,27.72-4.84,35.3-12.34 C286.565,235.007,289.215,229.497,289.215,223.497z"/>
	</g>
	<g style="opacity:0.2;">
		<path transform="scale(0.8 0.8) translate(62,56)" style="fill:#FFF;" d="M289.215,223.497c0,6-2.65,11.51-7.24,16.03c-7.58,7.5-20.43,12.34-35.3,12.34 c-14.87,0-27.73-4.84-35.31-12.34c-4.59-4.52-7.24-10.03-7.24-16.03c0-15.9,18.69-28.36,42.55-28.36 S289.215,207.597,289.215,223.497z"/>
		<path d="M289.215,223.497v14.19c0,15.9-18.68,28.36-42.54,28.36s-42.55-12.46-42.55-28.36v-14.19c0,6,2.65,11.51,7.24,16.03 c7.58,7.5,20.44,12.34,35.31,12.34c14.87,0,27.72-4.84,35.3-12.34C286.565,235.007,289.215,229.497,289.215,223.497z"/>
	</g>
</svg>
